<svg width="60" height="60" viewBox="0 0 60 60" fill="none" xmlns="http://www.w3.org/2000/svg">
<path d="M39.2925 6.17623C39.3649 5.94084 39.3902 5.69349 39.367 5.44831C39.3438 5.20313 39.2725 4.96492 39.1573 4.74729C39.042 4.52965 38.885 4.33684 38.6952 4.17988C38.5055 4.02292 38.2866 3.90487 38.0512 3.83248C37.8158 3.76009 37.5685 3.73477 37.3233 3.75797C37.0781 3.78118 36.8399 3.85244 36.6223 3.9677C36.4047 4.08296 36.2119 4.23996 36.0549 4.42973C35.8979 4.61951 35.7799 4.83834 35.7075 5.07373L20.7075 53.8237C20.5613 54.2991 20.6099 54.8131 20.8427 55.2527C21.0755 55.6922 21.4733 56.0213 21.9487 56.1675C22.4241 56.3137 22.9382 56.265 23.3777 56.0323C23.8172 55.7995 24.1463 55.4016 24.2925 54.9262L39.2925 6.17623ZM18.2025 15.5475C18.3771 15.7217 18.5156 15.9286 18.6102 16.1564C18.7047 16.3841 18.7533 16.6284 18.7533 16.875C18.7533 17.1216 18.7047 17.3658 18.6102 17.5936C18.5156 17.8214 18.3771 18.0283 18.2025 18.2025L6.40125 30L18.2025 41.7975C18.5546 42.1496 18.7524 42.6271 18.7524 43.125C18.7524 43.6229 18.5546 44.1004 18.2025 44.4525C17.8504 44.8046 17.3729 45.0023 16.875 45.0023C16.3771 45.0023 15.8996 44.8046 15.5475 44.4525L2.42249 31.3275C2.24788 31.1533 2.10935 30.9464 2.01482 30.7186C1.9203 30.4908 1.87164 30.2466 1.87164 30C1.87164 29.7534 1.9203 29.5091 2.01482 29.2814C2.10935 29.0536 2.24788 28.8467 2.42249 28.6725L15.5475 15.5475C15.7217 15.3729 15.9286 15.2343 16.1564 15.1398C16.3842 15.0453 16.6284 14.9966 16.875 14.9966C17.1216 14.9966 17.3658 15.0453 17.5936 15.1398C17.8214 15.2343 18.0283 15.3729 18.2025 15.5475ZM41.7975 15.5475C41.6229 15.7217 41.4843 15.9286 41.3898 16.1564C41.2953 16.3841 41.2466 16.6284 41.2466 16.875C41.2466 17.1216 41.2953 17.3658 41.3898 17.5936C41.4843 17.8214 41.6229 18.0283 41.7975 18.2025L53.5987 30L41.7975 41.7975C41.6232 41.9718 41.4849 42.1788 41.3905 42.4065C41.2962 42.6343 41.2476 42.8784 41.2476 43.125C41.2476 43.3715 41.2962 43.6156 41.3905 43.8434C41.4849 44.0712 41.6232 44.2782 41.7975 44.4525C41.9718 44.6268 42.1788 44.7651 42.4066 44.8594C42.6343 44.9538 42.8785 45.0023 43.125 45.0023C43.3715 45.0023 43.6157 44.9538 43.8434 44.8594C44.0712 44.7651 44.2782 44.6268 44.4525 44.4525L57.5775 31.3275C57.7521 31.1533 57.8906 30.9464 57.9852 30.7186C58.0797 30.4908 58.1283 30.2466 58.1283 30C58.1283 29.7534 58.0797 29.5091 57.9852 29.2814C57.8906 29.0536 57.7521 28.8467 57.5775 28.6725L44.4525 15.5475C44.2783 15.3729 44.0714 15.2343 43.8436 15.1398C43.6158 15.0453 43.3716 14.9966 43.125 14.9966C42.8784 14.9966 42.6342 15.0453 42.4064 15.1398C42.1786 15.2343 41.9717 15.3729 41.7975 15.5475Z" fill="#9D9D9D"/>
</svg>
