<svg width="25" height="25" viewBox="0 0 25 25" fill="none" xmlns="http://www.w3.org/2000/svg">
<path d="M7.25937 7.25937C7.33195 7.18662 7.41816 7.1289 7.51307 7.08951C7.60799 7.05013 7.70974 7.02985 7.8125 7.02985C7.91526 7.02985 8.01701 7.05013 8.11193 7.08951C8.20684 7.1289 8.29305 7.18662 8.36563 7.25937L12.5 11.3953L16.6344 7.25937C16.707 7.18674 16.7932 7.12912 16.8882 7.08981C16.9831 7.0505 17.0848 7.03026 17.1875 7.03026C17.2902 7.03026 17.3919 7.0505 17.4868 7.08981C17.5818 7.12912 17.668 7.18674 17.7406 7.25937C17.8133 7.33201 17.8709 7.41825 17.9102 7.51315C17.9495 7.60806 17.9697 7.70978 17.9697 7.8125C17.9697 7.91522 17.9495 8.01694 17.9102 8.11185C17.8709 8.20675 17.8133 8.29299 17.7406 8.36563L13.6047 12.5L17.7406 16.6344C17.8133 16.707 17.8709 16.7932 17.9102 16.8882C17.9495 16.9831 17.9697 17.0848 17.9697 17.1875C17.9697 17.2902 17.9495 17.3919 17.9102 17.4868C17.8709 17.5818 17.8133 17.668 17.7406 17.7406C17.668 17.8133 17.5818 17.8709 17.4868 17.9102C17.3919 17.9495 17.2902 17.9697 17.1875 17.9697C17.0848 17.9697 16.9831 17.9495 16.8882 17.9102C16.7932 17.8709 16.707 17.8133 16.6344 17.7406L12.5 13.6047L8.36563 17.7406C8.29299 17.8133 8.20675 17.8709 8.11185 17.9102C8.01694 17.9495 7.91522 17.9697 7.8125 17.9697C7.70978 17.9697 7.60806 17.9495 7.51315 17.9102C7.41825 17.8709 7.33201 17.8133 7.25937 17.7406C7.18674 17.668 7.12912 17.5818 7.08981 17.4868C7.0505 17.3919 7.03026 17.2902 7.03026 17.1875C7.03026 17.0848 7.0505 16.9831 7.08981 16.8882C7.12912 16.7932 7.18674 16.707 7.25937 16.6344L11.3953 12.5L7.25937 8.36563C7.18662 8.29305 7.1289 8.20684 7.08951 8.11193C7.05013 8.01701 7.02985 7.91526 7.02985 7.8125C7.02985 7.70974 7.05013 7.60799 7.08951 7.51307C7.1289 7.41816 7.18662 7.33195 7.25937 7.25937Z" fill="black"/>
</svg>
