<svg width="50" height="50" viewBox="0 0 50 50" fill="none" xmlns="http://www.w3.org/2000/svg">
<path d="M3.125 34.375C3.125 33.5462 3.45424 32.7513 4.04029 32.1653C4.62634 31.5792 5.4212 31.25 6.25 31.25H12.5C13.3288 31.25 14.1237 31.5792 14.7097 32.1653C15.2958 32.7513 15.625 33.5462 15.625 34.375V43.75C15.625 44.5788 15.2958 45.3737 14.7097 45.9597C14.1237 46.5458 13.3288 46.875 12.5 46.875H6.25C5.4212 46.875 4.62634 46.5458 4.04029 45.9597C3.45424 45.3737 3.125 44.5788 3.125 43.75V34.375ZM18.75 21.875C18.75 21.0462 19.0792 20.2513 19.6653 19.6653C20.2513 19.0792 21.0462 18.75 21.875 18.75H28.125C28.9538 18.75 29.7487 19.0792 30.3347 19.6653C30.9208 20.2513 31.25 21.0462 31.25 21.875V43.75C31.25 44.5788 30.9208 45.3737 30.3347 45.9597C29.7487 46.5458 28.9538 46.875 28.125 46.875H21.875C21.0462 46.875 20.2513 46.5458 19.6653 45.9597C19.0792 45.3737 18.75 44.5788 18.75 43.75V21.875ZM34.375 6.25C34.375 5.4212 34.7042 4.62634 35.2903 4.04029C35.8763 3.45424 36.6712 3.125 37.5 3.125H43.75C44.5788 3.125 45.3737 3.45424 45.9597 4.04029C46.5458 4.62634 46.875 5.4212 46.875 6.25V43.75C46.875 44.5788 46.5458 45.3737 45.9597 45.9597C45.3737 46.5458 44.5788 46.875 43.75 46.875H37.5C36.6712 46.875 35.8763 46.5458 35.2903 45.9597C34.7042 45.3737 34.375 44.5788 34.375 43.75V6.25Z" fill="#9D9D9D"/>
</svg>
