<svg width="408" height="255" viewBox="0 0 408 255" fill="none" xmlns="http://www.w3.org/2000/svg">
<line x1="37" y1="228.5" x2="387" y2="228.5" stroke="#007EA7" stroke-width="3"/>
<path d="M40 176.848V227H387V62L302.513 117.167L232.107 103.125L160.696 151.772L114.429 135.222L40 176.848Z" fill="#C1EDFB"/>
<line x1="40" y1="194.5" x2="387" y2="194.5" stroke="#32ADD5"/>
<line x1="40" y1="159.5" x2="387" y2="159.5" stroke="#32ADD4"/>
<line x1="40" y1="124.5" x2="387" y2="124.5" stroke="#32ADD4"/>
<line x1="40" y1="89.5" x2="387" y2="89.5" stroke="#32ADD4"/>
<line x1="40" y1="54.5" x2="387" y2="54.5" stroke="#32ADD4"/>
<line x1="386.5" y1="227" x2="386.5" y2="37" stroke="#32ADD5"/>
<line x1="351.5" y1="227" x2="351.5" y2="37" stroke="#32ADD5"/>
<line x1="316.5" y1="227" x2="316.5" y2="37" stroke="#32ADD5"/>
<line x1="281.5" y1="227" x2="281.5" y2="37" stroke="#32ADD5"/>
<line x1="246.5" y1="227" x2="246.5" y2="37" stroke="#32ADD5"/>
<line x1="211.5" y1="227" x2="211.5" y2="37" stroke="#32ADD5"/>
<line x1="176.5" y1="227" x2="176.5" y2="37" stroke="#32ADD5"/>
<line x1="141.5" y1="227" x2="141.5" y2="37" stroke="#32ADD5"/>
<line x1="106.5" y1="227" x2="106.5" y2="37" stroke="#32ADD5"/>
<line x1="71.5" y1="227" x2="71.5" y2="37" stroke="#32ADD5"/>
<line x1="38.5" y1="-1.79988e-09" x2="38.5" y2="230" stroke="#007EA7" stroke-width="3"/>
<path d="M3.128 189.8H7.24V201H5.656V191.192H3.128V189.8ZM14.2659 201.128C11.6419 201.128 9.68988 199.048 9.68988 195.4C9.68988 191.752 11.6419 189.672 14.2659 189.672C16.8739 189.672 18.8259 191.752 18.8259 195.4C18.8259 199.048 16.8739 201.128 14.2659 201.128ZM14.2659 199.704C16.0099 199.704 17.2259 198.264 17.2259 195.4C17.2259 192.536 16.0099 191.096 14.2659 191.096C12.5059 191.096 11.2899 192.536 11.2899 195.4C11.2899 198.264 12.5059 199.704 14.2659 199.704ZM24.9378 201.128C22.3138 201.128 20.3618 199.048 20.3618 195.4C20.3618 191.752 22.3138 189.672 24.9378 189.672C27.5458 189.672 29.4978 191.752 29.4978 195.4C29.4978 199.048 27.5458 201.128 24.9378 201.128ZM24.9378 199.704C26.6818 199.704 27.8978 198.264 27.8978 195.4C27.8978 192.536 26.6818 191.096 24.9378 191.096C23.1778 191.096 21.9618 192.536 21.9618 195.4C21.9618 198.264 23.1778 199.704 24.9378 199.704Z" fill="black"/>
<path d="M3.896 164.608H9.64V166H1.592V164.912L6.152 160.512C7.336 159.36 7.56 158.656 7.56 157.952C7.56 156.8 6.744 156.096 5.176 156.096C3.976 156.096 3 156.48 2.312 157.312L1.224 156.368C2.088 155.296 3.576 154.672 5.32 154.672C7.656 154.672 9.16 155.872 9.16 157.792C9.16 158.88 8.84 159.856 7.32 161.312L3.896 164.608ZM15.4846 166.128C12.8606 166.128 10.9086 164.048 10.9086 160.4C10.9086 156.752 12.8606 154.672 15.4846 154.672C18.0926 154.672 20.0446 156.752 20.0446 160.4C20.0446 164.048 18.0926 166.128 15.4846 166.128ZM15.4846 164.704C17.2286 164.704 18.4446 163.264 18.4446 160.4C18.4446 157.536 17.2286 156.096 15.4846 156.096C13.7246 156.096 12.5086 157.536 12.5086 160.4C12.5086 163.264 13.7246 164.704 15.4846 164.704ZM26.1565 166.128C23.5325 166.128 21.5805 164.048 21.5805 160.4C21.5805 156.752 23.5325 154.672 26.1565 154.672C28.7645 154.672 30.7165 156.752 30.7165 160.4C30.7165 164.048 28.7645 166.128 26.1565 166.128ZM26.1565 164.704C27.9005 164.704 29.1165 163.264 29.1165 160.4C29.1165 157.536 27.9005 156.096 26.1565 156.096C24.3965 156.096 23.1805 157.536 23.1805 160.4C23.1805 163.264 24.3965 164.704 26.1565 164.704Z" fill="black"/>
<path d="M6.056 124.504C8.296 124.712 9.432 125.976 9.432 127.704C9.432 129.592 8.04 131.128 5.192 131.128C3.592 131.128 2.024 130.616 1.08 129.768L1.816 128.504C2.568 129.208 3.816 129.704 5.192 129.704C6.872 129.704 7.832 128.936 7.832 127.72C7.832 126.536 6.984 125.768 5.064 125.768H4.168V124.648L6.984 121.192H1.592V119.8H8.984V120.888L6.056 124.504ZM15.5003 131.128C12.8763 131.128 10.9243 129.048 10.9243 125.4C10.9243 121.752 12.8763 119.672 15.5003 119.672C18.1083 119.672 20.0603 121.752 20.0603 125.4C20.0603 129.048 18.1083 131.128 15.5003 131.128ZM15.5003 129.704C17.2443 129.704 18.4603 128.264 18.4603 125.4C18.4603 122.536 17.2443 121.096 15.5003 121.096C13.7403 121.096 12.5243 122.536 12.5243 125.4C12.5243 128.264 13.7403 129.704 15.5003 129.704ZM26.1721 131.128C23.5481 131.128 21.5961 129.048 21.5961 125.4C21.5961 121.752 23.5481 119.672 26.1721 119.672C28.7801 119.672 30.7321 121.752 30.7321 125.4C30.7321 129.048 28.7801 131.128 26.1721 131.128ZM26.1721 129.704C27.9161 129.704 29.1321 128.264 29.1321 125.4C29.1321 122.536 27.9161 121.096 26.1721 121.096C24.4121 121.096 23.1961 122.536 23.1961 125.4C23.1961 128.264 24.4121 129.704 26.1721 129.704Z" fill="black"/>
<path d="M10.512 91.872V93.248H8.384V96H6.832V93.248H0.608V92.128L6.336 84.8H8.064L2.576 91.872H6.88V89.44H8.384V91.872H10.512ZM16.0471 96.128C13.4231 96.128 11.4711 94.048 11.4711 90.4C11.4711 86.752 13.4231 84.672 16.0471 84.672C18.6551 84.672 20.6071 86.752 20.6071 90.4C20.6071 94.048 18.6551 96.128 16.0471 96.128ZM16.0471 94.704C17.7911 94.704 19.0071 93.264 19.0071 90.4C19.0071 87.536 17.7911 86.096 16.0471 86.096C14.2871 86.096 13.0711 87.536 13.0711 90.4C13.0711 93.264 14.2871 94.704 16.0471 94.704ZM26.719 96.128C24.095 96.128 22.143 94.048 22.143 90.4C22.143 86.752 24.095 84.672 26.719 84.672C29.327 84.672 31.279 86.752 31.279 90.4C31.279 94.048 29.327 96.128 26.719 96.128ZM26.719 94.704C28.463 94.704 29.679 93.264 29.679 90.4C29.679 87.536 28.463 86.096 26.719 86.096C24.959 86.096 23.743 87.536 23.743 90.4C23.743 93.264 24.959 94.704 26.719 94.704Z" fill="black"/>
<path d="M4.968 54.264C8.312 54.264 9.624 55.656 9.624 57.64C9.624 59.576 8.248 61.128 5.384 61.128C3.8 61.128 2.232 60.616 1.272 59.768L2.008 58.504C2.76 59.208 4.008 59.704 5.368 59.704C7.064 59.704 8.024 58.92 8.024 57.704C8.024 56.44 7.224 55.656 4.632 55.656H2.088L2.68 49.8H9V51.192H4.024L3.72 54.264H4.968ZM15.5315 61.128C12.9075 61.128 10.9555 59.048 10.9555 55.4C10.9555 51.752 12.9075 49.672 15.5315 49.672C18.1395 49.672 20.0915 51.752 20.0915 55.4C20.0915 59.048 18.1395 61.128 15.5315 61.128ZM15.5315 59.704C17.2755 59.704 18.4915 58.264 18.4915 55.4C18.4915 52.536 17.2755 51.096 15.5315 51.096C13.7715 51.096 12.5555 52.536 12.5555 55.4C12.5555 58.264 13.7715 59.704 15.5315 59.704ZM26.2034 61.128C23.5794 61.128 21.6274 59.048 21.6274 55.4C21.6274 51.752 23.5794 49.672 26.2034 49.672C28.8114 49.672 30.7634 51.752 30.7634 55.4C30.7634 59.048 28.8114 61.128 26.2034 61.128ZM26.2034 59.704C27.9474 59.704 29.1634 58.264 29.1634 55.4C29.1634 52.536 27.9474 51.096 26.2034 51.096C24.4434 51.096 23.2274 52.536 23.2274 55.4C23.2274 58.264 24.4434 59.704 26.2034 59.704Z" fill="black"/>
<path d="M91.896 249.608H97.64V251H89.592V249.912L94.152 245.512C95.336 244.36 95.56 243.656 95.56 242.952C95.56 241.8 94.744 241.096 93.176 241.096C91.976 241.096 91 241.48 90.312 242.312L89.224 241.368C90.088 240.296 91.576 239.672 93.32 239.672C95.656 239.672 97.16 240.872 97.16 242.792C97.16 243.88 96.84 244.856 95.32 246.312L91.896 249.608ZM103.485 251.128C100.861 251.128 98.9086 249.048 98.9086 245.4C98.9086 241.752 100.861 239.672 103.485 239.672C106.093 239.672 108.045 241.752 108.045 245.4C108.045 249.048 106.093 251.128 103.485 251.128ZM103.485 249.704C105.229 249.704 106.445 248.264 106.445 245.4C106.445 242.536 105.229 241.096 103.485 241.096C101.725 241.096 100.509 242.536 100.509 245.4C100.509 248.264 101.725 249.704 103.485 249.704ZM108.894 239.8H113.006V251H111.422V241.192H108.894V239.8ZM119.088 239.672C122.096 239.672 123.792 241.688 123.792 245.256C123.792 249.08 121.632 251.128 118.496 251.128C117.44 251.128 116.432 250.92 115.712 250.472L116.32 249.224C116.912 249.608 117.664 249.752 118.48 249.752C120.752 249.752 122.192 248.328 122.192 245.528V245.128C121.536 246.104 120.352 246.6 118.96 246.6C116.736 246.6 115.136 245.272 115.136 243.208C115.136 241.048 116.864 239.672 119.088 239.672ZM119.232 245.304C120.768 245.304 121.824 244.36 121.824 243.128C121.824 241.976 120.896 240.968 119.152 240.968C117.696 240.968 116.688 241.816 116.688 243.144C116.688 244.456 117.664 245.304 119.232 245.304Z" fill="black"/>
<path d="M161.896 249.608H167.64V251H159.592V249.912L164.152 245.512C165.336 244.36 165.56 243.656 165.56 242.952C165.56 241.8 164.744 241.096 163.176 241.096C161.976 241.096 161 241.48 160.312 242.312L159.224 241.368C160.088 240.296 161.576 239.672 163.32 239.672C165.656 239.672 167.16 240.872 167.16 242.792C167.16 243.88 166.84 244.856 165.32 246.312L161.896 249.608ZM173.485 251.128C170.861 251.128 168.909 249.048 168.909 245.4C168.909 241.752 170.861 239.672 173.485 239.672C176.093 239.672 178.045 241.752 178.045 245.4C178.045 249.048 176.093 251.128 173.485 251.128ZM173.485 249.704C175.229 249.704 176.445 248.264 176.445 245.4C176.445 242.536 175.229 241.096 173.485 241.096C171.725 241.096 170.509 242.536 170.509 245.4C170.509 248.264 171.725 249.704 173.485 249.704ZM181.662 249.608H187.406V251H179.358V249.912L183.918 245.512C185.102 244.36 185.326 243.656 185.326 242.952C185.326 241.8 184.51 241.096 182.942 241.096C181.742 241.096 180.766 241.48 180.078 242.312L178.99 241.368C179.854 240.296 181.342 239.672 183.086 239.672C185.422 239.672 186.926 240.872 186.926 242.792C186.926 243.88 186.606 244.856 185.086 246.312L181.662 249.608ZM193.25 251.128C190.626 251.128 188.674 249.048 188.674 245.4C188.674 241.752 190.626 239.672 193.25 239.672C195.858 239.672 197.81 241.752 197.81 245.4C197.81 249.048 195.858 251.128 193.25 251.128ZM193.25 249.704C194.994 249.704 196.21 248.264 196.21 245.4C196.21 242.536 194.994 241.096 193.25 241.096C191.49 241.096 190.274 242.536 190.274 245.4C190.274 248.264 191.49 249.704 193.25 249.704Z" fill="black"/>
<path d="M231.896 249.608H237.64V251H229.592V249.912L234.152 245.512C235.336 244.36 235.56 243.656 235.56 242.952C235.56 241.8 234.744 241.096 233.176 241.096C231.976 241.096 231 241.48 230.312 242.312L229.224 241.368C230.088 240.296 231.576 239.672 233.32 239.672C235.656 239.672 237.16 240.872 237.16 242.792C237.16 243.88 236.84 244.856 235.32 246.312L231.896 249.608ZM243.485 251.128C240.861 251.128 238.909 249.048 238.909 245.4C238.909 241.752 240.861 239.672 243.485 239.672C246.093 239.672 248.045 241.752 248.045 245.4C248.045 249.048 246.093 251.128 243.485 251.128ZM243.485 249.704C245.229 249.704 246.445 248.264 246.445 245.4C246.445 242.536 245.229 241.096 243.485 241.096C241.725 241.096 240.509 242.536 240.509 245.4C240.509 248.264 241.725 249.704 243.485 249.704ZM251.662 249.608H257.406V251H249.358V249.912L253.918 245.512C255.102 244.36 255.326 243.656 255.326 242.952C255.326 241.8 254.51 241.096 252.942 241.096C251.742 241.096 250.766 241.48 250.078 242.312L248.99 241.368C249.854 240.296 251.342 239.672 253.086 239.672C255.422 239.672 256.926 240.872 256.926 242.792C256.926 243.88 256.606 244.856 255.086 246.312L251.662 249.608ZM258.081 239.8H262.193V251H260.609V241.192H258.081V239.8Z" fill="black"/>
<path d="M301.896 249.608H307.64V251H299.592V249.912L304.152 245.512C305.336 244.36 305.56 243.656 305.56 242.952C305.56 241.8 304.744 241.096 303.176 241.096C301.976 241.096 301 241.48 300.312 242.312L299.224 241.368C300.088 240.296 301.576 239.672 303.32 239.672C305.656 239.672 307.16 240.872 307.16 242.792C307.16 243.88 306.84 244.856 305.32 246.312L301.896 249.608ZM313.485 251.128C310.861 251.128 308.909 249.048 308.909 245.4C308.909 241.752 310.861 239.672 313.485 239.672C316.093 239.672 318.045 241.752 318.045 245.4C318.045 249.048 316.093 251.128 313.485 251.128ZM313.485 249.704C315.229 249.704 316.445 248.264 316.445 245.4C316.445 242.536 315.229 241.096 313.485 241.096C311.725 241.096 310.509 242.536 310.509 245.4C310.509 248.264 311.725 249.704 313.485 249.704ZM321.662 249.608H327.406V251H319.358V249.912L323.918 245.512C325.102 244.36 325.326 243.656 325.326 242.952C325.326 241.8 324.51 241.096 322.942 241.096C321.742 241.096 320.766 241.48 320.078 242.312L318.99 241.368C319.854 240.296 321.342 239.672 323.086 239.672C325.422 239.672 326.926 240.872 326.926 242.792C326.926 243.88 326.606 244.856 325.086 246.312L321.662 249.608ZM330.849 249.608H336.593V251H328.545V249.912L333.105 245.512C334.289 244.36 334.513 243.656 334.513 242.952C334.513 241.8 333.697 241.096 332.129 241.096C330.929 241.096 329.953 241.48 329.265 242.312L328.177 241.368C329.041 240.296 330.529 239.672 332.273 239.672C334.609 239.672 336.113 240.872 336.113 242.792C336.113 243.88 335.793 244.856 334.273 246.312L330.849 249.608Z" fill="black"/>
<path d="M371.896 249.608H377.64V251H369.592V249.912L374.152 245.512C375.336 244.36 375.56 243.656 375.56 242.952C375.56 241.8 374.744 241.096 373.176 241.096C371.976 241.096 371 241.48 370.312 242.312L369.224 241.368C370.088 240.296 371.576 239.672 373.32 239.672C375.656 239.672 377.16 240.872 377.16 242.792C377.16 243.88 376.84 244.856 375.32 246.312L371.896 249.608ZM383.485 251.128C380.861 251.128 378.909 249.048 378.909 245.4C378.909 241.752 380.861 239.672 383.485 239.672C386.093 239.672 388.045 241.752 388.045 245.4C388.045 249.048 386.093 251.128 383.485 251.128ZM383.485 249.704C385.229 249.704 386.445 248.264 386.445 245.4C386.445 242.536 385.229 241.096 383.485 241.096C381.725 241.096 380.509 242.536 380.509 245.4C380.509 248.264 381.725 249.704 383.485 249.704ZM391.662 249.608H397.406V251H389.358V249.912L393.918 245.512C395.102 244.36 395.326 243.656 395.326 242.952C395.326 241.8 394.51 241.096 392.942 241.096C391.742 241.096 390.766 241.48 390.078 242.312L388.99 241.368C389.854 240.296 391.342 239.672 393.086 239.672C395.422 239.672 396.926 240.872 396.926 242.792C396.926 243.88 396.606 244.856 395.086 246.312L391.662 249.608ZM403.009 244.504C405.249 244.712 406.385 245.976 406.385 247.704C406.385 249.592 404.993 251.128 402.145 251.128C400.545 251.128 398.977 250.616 398.033 249.768L398.769 248.504C399.521 249.208 400.769 249.704 402.145 249.704C403.825 249.704 404.785 248.936 404.785 247.72C404.785 246.536 403.937 245.768 402.017 245.768H401.121V244.648L403.937 241.192H398.545V239.8H405.937V240.888L403.009 244.504Z" fill="black"/>
<circle cx="115" cy="137" r="6.5" fill="white" stroke="#00607F"/>
<circle cx="115" cy="137" r="5" fill="#00607F"/>
<circle cx="233" cy="104" r="6.5" fill="white" stroke="#00607F"/>
<circle cx="233" cy="104" r="5" fill="#00607F"/>
<circle cx="376" cy="69" r="6.5" fill="white" stroke="#00607F"/>
<circle cx="376" cy="69" r="5" fill="#00607F"/>
</svg>
